<svg xmlns="http://www.w3.org/2000/svg" viewBox="0 0 110.36 12.88"><defs><style>.cls-1{fill:#13100d;}</style></defs><g id="Capa_2" data-name="Capa 2"><g id="Capa_1-2" data-name="Capa 1"><path class="cls-1" d="M8.55,2.87v9.94H6.26V8.74h-4v4.07H0V2.87H2.3V6.72h4V2.87Z"/><path class="cls-1" d="M18.49,10.79v2h-7V2.87h6.86v2H13.8V6.82h3.92V8.68H13.8v2.11Z"/><path class="cls-1" d="M20.94,12.81V2.87h4.48a3,3,0,0,1,1.3.29,3.13,3.13,0,0,1,1,.77A3.79,3.79,0,0,1,28.43,5a3.27,3.27,0,0,1,.24,1.22,3.5,3.5,0,0,1-.19,1.17,3.22,3.22,0,0,1-.56,1,3,3,0,0,1-.87.72l2.18,3.7H26.7L24.79,9.6H23.24v3.21Zm2.3-5.21h2.1a.82.82,0,0,0,.5-.17,1.31,1.31,0,0,0,.35-.49,1.58,1.58,0,0,0,.14-.71,1.46,1.46,0,0,0-.16-.71,1.32,1.32,0,0,0-.4-.47.83.83,0,0,0-.5-.16h-2Z"/><path class="cls-1" d="M33.67,7.13v5.68h-2.3V2.87h1.82L37.8,8.72V2.87h2.3v9.94H38.22Z"/><path class="cls-1" d="M45.56,2.87H48l3.42,9.94H49.1l-.68-2.23H45.15l-.67,2.23H42.13ZM48,9,46.79,5.18,45.63,9Zm-.43-6.79-1.43-.39L46.82,0h2Z"/><path class="cls-1" d="M55.78,7.13v5.68h-2.3V2.87H55.3l4.61,5.85V2.87H62.2v9.94H60.33Z"/><path class="cls-1" d="M68.89,7.74A5,5,0,0,1,69.23,6a4.86,4.86,0,0,1,1-1.59,4.64,4.64,0,0,1,1.57-1.14,4.84,4.84,0,0,1,2.1-.43,4.76,4.76,0,0,1,2.43.6A4,4,0,0,1,77.84,5L76.08,6.2a2,2,0,0,0-.6-.82A2.24,2.24,0,0,0,74.67,5a3.23,3.23,0,0,0-.85-.12,2.47,2.47,0,0,0-1.15.26,2.6,2.6,0,0,0-.81.7,3.07,3.07,0,0,0-.47,1,3.61,3.61,0,0,0-.16,1.07A3.56,3.56,0,0,0,71.41,9a3.25,3.25,0,0,0,.53,1,2.46,2.46,0,0,0,1.91.91,2.85,2.85,0,0,0,.85-.14,2.5,2.5,0,0,0,.81-.45,1.94,1.94,0,0,0,.57-.79L78,10.57a3,3,0,0,1-1,1.25,5.11,5.11,0,0,1-1.52.79,5.56,5.56,0,0,1-1.68.27,4.56,4.56,0,0,1-2-.44,4.88,4.88,0,0,1-1.55-1.18,5.39,5.39,0,0,1-1-1.65A5.05,5.05,0,0,1,68.89,7.74Z"/><path class="cls-1" d="M82.5,2.87H85l3.41,9.94H86l-.67-2.23H82.1l-.68,2.23H79.07ZM84.89,9,83.73,5.18,82.58,9Z"/><path class="cls-1" d="M98.64,10.26a2.2,2.2,0,0,1-.45,1.42,2.75,2.75,0,0,1-1.23.85,4.79,4.79,0,0,1-1.69.28H90.43V2.87H96a2,2,0,0,1,1.21.37,2.44,2.44,0,0,1,.78,1,2.89,2.89,0,0,1,.27,1.22,2.66,2.66,0,0,1-.36,1.33,2.25,2.25,0,0,1-1.06,1,2.57,2.57,0,0,1,1.35.9A2.63,2.63,0,0,1,98.64,10.26ZM92.72,4.83V6.89H95a1,1,0,0,0,.46-.11.87.87,0,0,0,.36-.35,1.11,1.11,0,0,0,.14-.58,1.19,1.19,0,0,0-.12-.56A.85.85,0,0,0,95.51,5a.84.84,0,0,0-.45-.12Zm3.59,5a1.33,1.33,0,0,0-.13-.57,1,1,0,0,0-.33-.39.81.81,0,0,0-.48-.15H92.72v2.17h2.55a.9.9,0,0,0,.52-.14,1.12,1.12,0,0,0,.38-.37A1.1,1.1,0,0,0,96.31,9.8Z"/><path class="cls-1" d="M105.4,12.88a4.6,4.6,0,0,1-2-.43,4.76,4.76,0,0,1-1.55-1.14,5.2,5.2,0,0,1-1-1.63,5,5,0,0,1-.35-1.87,4.86,4.86,0,0,1,.37-1.89,5.1,5.1,0,0,1,1-1.6,4.91,4.91,0,0,1,1.58-1.11,4.85,4.85,0,0,1,2-.41,4.62,4.62,0,0,1,2,.43A4.79,4.79,0,0,1,109,4.38,5.39,5.39,0,0,1,110,6a5.17,5.17,0,0,1,.35,1.84A5,5,0,0,1,110,9.74a5.12,5.12,0,0,1-2.61,2.73A4.85,4.85,0,0,1,105.4,12.88Zm-2.59-5A3.78,3.78,0,0,0,103,9a2.93,2.93,0,0,0,.5,1,2.33,2.33,0,0,0,.82.67,2.37,2.37,0,0,0,1.12.26,2.47,2.47,0,0,0,1.15-.26,2.6,2.6,0,0,0,.81-.7,3.26,3.26,0,0,0,.48-1,3.71,3.71,0,0,0,.16-1.1,3.38,3.38,0,0,0-.17-1.1,2.93,2.93,0,0,0-.5-1,2.26,2.26,0,0,0-.83-.67,2.44,2.44,0,0,0-1.1-.24,2.4,2.4,0,0,0-1.14.26,2.3,2.3,0,0,0-.81.67,2.86,2.86,0,0,0-.49,1A3.77,3.77,0,0,0,102.81,7.84Z"/></g></g></svg>